<svg id="visual" viewBox="0 0 900 675" width="900" height="675" xmlns="http://www.w3.org/2000/svg" xmlns:xlink="http://www.w3.org/1999/xlink" version="1.1"><rect x="0" y="0" width="900" height="675" fill="#00bdee"></rect><path d="M0 345L150 367L300 356L450 342L600 319L750 382L900 381L900 676L750 676L600 676L450 676L300 676L150 676L0 676Z" fill="#002d38"></path><path d="M0 443L150 438L300 418L450 455L600 453L750 415L900 464L900 676L750 676L600 676L450 676L300 676L150 676L0 676Z" fill="#0d1d22"></path><path d="M0 519L150 508L300 509L450 521L600 550L750 499L900 533L900 676L750 676L600 676L450 676L300 676L150 676L0 676Z" fill="#0c0c0c"></path></svg>