<svg id="visual" viewBox="0 0 900 675" width="900" height="675" xmlns="http://www.w3.org/2000/svg" xmlns:xlink="http://www.w3.org/1999/xlink" version="1.1"><rect x="0" y="0" width="900" height="675" fill="#00bdee"></rect><path d="M0 521L180 405L360 504L540 400L720 468L900 438L900 676L720 676L540 676L360 676L180 676L0 676Z" fill="#e8ff00"></path><path d="M0 490L180 550L360 522L540 507L720 520L900 560L900 676L720 676L540 676L360 676L180 676L0 676Z" fill="#00f9c1"></path><path d="M0 560L180 614L360 556L540 588L720 581L900 575L900 676L720 676L540 676L360 676L180 676L0 676Z" fill="#20d2ff"></path></svg>