<svg id="visual" viewBox="0 0 960 540" width="960" height="540" xmlns="http://www.w3.org/2000/svg" xmlns:xlink="http://www.w3.org/1999/xlink" version="1.1"><rect x="0" y="0" width="960" height="540" fill="#FFFFFF"></rect><path d="M0 421L160 506L320 429L480 491L640 390L800 458L960 427L960 541L800 541L640 541L480 541L320 541L160 541L0 541Z" fill="#f6f7f8"></path><path d="M0 472L160 439L320 522L480 509L640 431L800 472L960 511L960 541L800 541L640 541L480 541L320 541L160 541L0 541Z" fill="#f1f2f3"></path></svg>