<svg id="visual" viewBox="0 0 900 675" width="900" height="675" xmlns="http://www.w3.org/2000/svg" xmlns:xlink="http://www.w3.org/1999/xlink" version="1.1"><rect x="0" y="0" width="900" height="675" fill="#00bdee"></rect><path d="M0 410L180 453L360 430L540 446L720 401L900 526L900 676L720 676L540 676L360 676L180 676L0 676Z" fill="#00bdee"></path><path d="M0 546L180 506L360 557L540 524L720 545L900 502L900 676L720 676L540 676L360 676L180 676L0 676Z" fill="#00efbe"></path><path d="M0 600L180 555L360 584L540 567L720 620L900 551L900 676L720 676L540 676L360 676L180 676L0 676Z" fill="#e8ff00"></path></svg>