<svg id="visual" viewBox="0 0 900 675" width="900" height="675" xmlns="http://www.w3.org/2000/svg" xmlns:xlink="http://www.w3.org/1999/xlink" version="1.1"><rect x="0" y="0" width="900" height="675" fill="#00bdee"></rect><path d="M0 494L180 451L360 469L540 464L720 489L900 477L900 676L720 676L540 676L360 676L180 676L0 676Z" fill="#20d2ff"></path><path d="M0 532L180 549L360 560L540 530L720 571L900 559L900 676L720 676L540 676L360 676L180 676L0 676Z" fill="#00f9c1"></path><path d="M0 576L180 613L360 606L540 586L720 619L900 589L900 676L720 676L540 676L360 676L180 676L0 676Z" fill="#e8ff00"></path></svg>