<svg id="visual" viewBox="0 0 960 540" width="960" height="540" xmlns="http://www.w3.org/2000/svg" xmlns:xlink="http://www.w3.org/1999/xlink" version="1.1"><rect x="0" y="0" width="960" height="540" fill="#f1f2f3"></rect><path d="M0 458L160 457L320 372L480 404L640 355L800 462L960 436L960 541L800 541L640 541L480 541L320 541L160 541L0 541Z" fill="#f6f7f8"></path><path d="M0 495L160 474L320 499L480 493L640 423L800 487L960 450L960 541L800 541L640 541L480 541L320 541L160 541L0 541Z" fill="#ffffff"></path></svg>